<svg width="126" height="50" viewBox="0 0 126 50" fill="none" xmlns="http://www.w3.org/2000/svg">
<path d="M2.86013 42.7868L2.78462 43.3096C2.62573 43.2286 2.46223 43.1676 2.29546 43.1267C2.12868 43.0858 1.95468 43.0657 1.77412 43.0657C1.38673 43.0657 1.08404 43.1429 0.865393 43.2973C0.64609 43.4517 0.537095 43.6645 0.537095 43.9343C0.537095 44.2749 0.906102 44.6537 1.64346 45.0701C1.74457 45.1253 1.8214 45.1687 1.87392 45.1999C2.38607 45.4937 2.71896 45.7434 2.87261 45.9504C3.02625 46.1573 3.10373 46.409 3.10373 46.7054C3.10373 47.1692 2.93695 47.5454 2.60406 47.8335C2.27116 48.1221 1.83518 48.2661 1.29678 48.2661C1.07682 48.2661 0.857514 48.2447 0.640181 48.2012C0.422847 48.1578 0.21208 48.0949 0.00722255 48.0105L0.0709123 47.4287C0.301377 47.5519 0.518054 47.6434 0.721598 47.7018C0.924486 47.7608 1.11884 47.79 1.30466 47.79C1.67826 47.79 1.97832 47.6959 2.20419 47.5072C2.4294 47.3184 2.54234 47.0667 2.54234 46.7521C2.54234 46.3746 2.18384 45.9835 1.46815 45.5767C1.35653 45.5138 1.27183 45.4652 1.21339 45.4314C0.720285 45.146 0.394614 44.8995 0.236374 44.6926C0.0787914 44.4857 0 44.2418 0 43.9615C0 43.5315 0.155613 43.1974 0.467496 42.9574C0.779379 42.7174 1.21864 42.598 1.7866 42.598C1.95862 42.598 2.13328 42.6136 2.3099 42.6448C2.48521 42.6772 2.66906 42.7239 2.86013 42.7868Z" fill="#1F2937"/>
<path d="M7.30068 46.0224V46.313H4.43136C4.44712 46.8215 4.58107 47.2114 4.8332 47.4825C5.08533 47.7537 5.44055 47.8892 5.89951 47.8892C6.08007 47.8892 6.26064 47.8652 6.44251 47.8166C6.62439 47.7679 6.80692 47.6953 6.98946 47.5986V48.0981C6.81152 48.174 6.62899 48.2311 6.44054 48.2694C6.2521 48.307 6.05578 48.3264 5.85158 48.3264C5.25211 48.3264 4.78264 48.139 4.44318 47.764C4.10372 47.3891 3.93366 46.8682 3.93366 46.1995C3.93366 45.5761 4.09847 45.074 4.42677 44.6939C4.75572 44.3138 5.18645 44.1237 5.7196 44.1237C6.2022 44.1237 6.58631 44.2943 6.87127 44.6349C7.15755 44.9754 7.30068 45.4379 7.30068 46.0224ZM6.80299 45.9393C6.7741 45.4911 6.66116 45.1473 6.46484 44.9073C6.26852 44.6673 6.00063 44.5473 5.66117 44.5473C5.33221 44.5473 5.05775 44.6725 4.83714 44.9229C4.61718 45.1733 4.48717 45.5119 4.44712 45.9387L6.80299 45.9393Z" fill="#1F2937"/>
<path d="M10.9251 44.9689V44.2184H11.3906V47.7991C11.3906 48.5353 11.2383 49.0867 10.933 49.4519C10.6283 49.8177 10.1693 50 9.55609 50C9.323 50 9.09647 49.9805 8.87783 49.941C8.65918 49.9014 8.45432 49.8424 8.26325 49.7639L8.30331 49.2255C8.50225 49.3332 8.70514 49.4136 8.91197 49.4674C9.1188 49.5213 9.32563 49.5479 9.53245 49.5479C9.9704 49.5479 10.3105 49.4039 10.5528 49.1152C10.7951 48.8266 10.9172 48.4205 10.9172 47.897V47.3742C10.7655 47.657 10.5751 47.873 10.344 48.0209C10.1135 48.1695 9.85353 48.2434 9.56397 48.2434C9.06758 48.2434 8.66772 48.0553 8.36437 47.6791C8.06037 47.3028 7.90869 46.8047 7.90869 46.1832C7.90869 45.5547 8.05971 45.0552 8.3624 44.6855C8.66509 44.3164 9.07087 44.1315 9.58038 44.1315C9.88504 44.1315 10.1523 44.2022 10.3821 44.3436C10.6119 44.485 10.7925 44.6939 10.9251 44.9689ZM9.62438 44.5402C9.26916 44.5402 8.98551 44.6855 8.77474 44.9761C8.56397 45.2667 8.45826 45.6643 8.45826 46.167C8.45826 46.673 8.56397 47.0732 8.77671 47.3677C8.98879 47.6628 9.27638 47.8101 9.64013 47.8101C10.0085 47.8101 10.3072 47.6622 10.5351 47.3658C10.7636 47.0693 10.8772 46.6782 10.8772 46.1904C10.8772 45.674 10.7655 45.2699 10.543 44.978C10.3204 44.6861 10.0137 44.5402 9.62438 44.5402Z" fill="#1F2937"/>
<path d="M12.6959 44.2178H13.2015V46.5134C13.2015 46.9642 13.2803 47.2957 13.4385 47.5078C13.5961 47.7199 13.8423 47.8263 14.1766 47.8263C14.5639 47.8263 14.8601 47.6804 15.0656 47.3878C15.2711 47.0959 15.3735 46.6743 15.3735 46.1242V44.2178H15.8909V48.2272H15.4175V47.4371C15.2691 47.7199 15.08 47.932 14.8509 48.0722C14.6217 48.2123 14.3486 48.2823 14.0334 48.2823C13.5955 48.2823 13.2632 48.1429 13.0367 47.8639C12.8102 47.585 12.6966 47.1738 12.6966 46.6315L12.6959 44.2178Z" fill="#1F2937"/>
<path d="M19.2212 44.1866V44.7017C19.1627 44.6887 19.1102 44.679 19.0636 44.6725C19.0176 44.666 18.9756 44.6628 18.9382 44.6628C18.5961 44.6628 18.3282 44.7899 18.1345 45.0442C17.9408 45.2985 17.8443 45.6513 17.8443 46.1015V48.2278H17.3308V44.2184H17.8042V45.0636C17.9047 44.7782 18.0564 44.5564 18.2579 44.3994C18.4595 44.2418 18.6946 44.1633 18.9625 44.1633C18.9992 44.1633 19.0386 44.1652 19.08 44.1691C19.1214 44.173 19.168 44.1789 19.2212 44.1866Z" fill="#1F2937"/>
<path d="M22.7583 45.6682V48.2272H22.3045V47.5357C22.1535 47.7822 21.9631 47.9684 21.7333 48.0942C21.5035 48.2201 21.2428 48.283 20.9513 48.283C20.5613 48.283 20.2494 48.1785 20.0143 47.9684C19.7799 47.7589 19.6624 47.4793 19.6624 47.1309C19.6624 46.7041 19.843 46.3714 20.2034 46.1346C20.5646 45.8972 21.0734 45.7791 21.7313 45.7791H22.2527C22.2527 45.7636 22.254 45.7415 22.2566 45.7123C22.2592 45.6838 22.2606 45.6611 22.2606 45.6455C22.2606 45.3127 22.1765 45.052 22.0078 44.8632C21.839 44.6744 21.6066 44.5804 21.3091 44.5804C21.1023 44.5804 20.9034 44.6076 20.7123 44.6628C20.5212 44.7179 20.3315 44.8029 20.1437 44.9183V44.4273C20.3453 44.3306 20.5488 44.2567 20.7543 44.2074C20.9598 44.1574 21.1634 44.1328 21.365 44.1328C21.8292 44.1328 22.1772 44.2612 22.4096 44.5181C22.642 44.7737 22.7583 45.157 22.7583 45.6682ZM21.6834 46.191C21.2061 46.191 20.839 46.2695 20.5836 46.4271C20.3275 46.5841 20.1995 46.8086 20.1995 47.0992C20.1995 47.3301 20.2744 47.5169 20.4241 47.659C20.5738 47.8017 20.7707 47.873 21.015 47.873C21.3919 47.873 21.6919 47.755 21.9158 47.5195C22.1397 47.2834 22.252 46.9642 22.252 46.5601V46.191H21.6834Z" fill="#1F2937"/>
<path d="M26.7523 42.229H27.2658V48.2272H26.7924V47.4053C26.6414 47.694 26.4477 47.9119 26.2119 48.0598C25.9756 48.2077 25.7024 48.2817 25.3925 48.2817C24.9204 48.2817 24.533 48.0858 24.231 47.694C23.9283 47.3022 23.7773 46.793 23.7773 46.167C23.7773 45.5514 23.9296 45.0578 24.2349 44.6874C24.5403 44.3164 24.9447 44.1309 25.4483 44.1309C25.732 44.1309 25.9861 44.1957 26.21 44.3255C26.4339 44.4552 26.6151 44.642 26.753 44.8853L26.7523 42.229ZM25.4956 44.5479C25.1404 44.5479 24.8574 44.6952 24.6479 44.9903C24.4385 45.2848 24.3334 45.6851 24.3334 46.191C24.3334 46.7074 24.4385 47.1128 24.6479 47.4079C24.8574 47.7024 25.143 47.8497 25.5035 47.8497C25.8751 47.8497 26.1758 47.7005 26.407 47.4014C26.6374 47.103 26.753 46.7074 26.753 46.2144C26.753 45.6928 26.6414 45.2848 26.4188 44.9897C26.1955 44.6952 25.8882 44.5479 25.4956 44.5479Z" fill="#1F2937"/>
<path d="M30.2618 44.1315C30.837 44.1315 31.2946 44.3196 31.6341 44.6958C31.9736 45.0721 32.1436 45.5813 32.1436 46.2228C32.1436 46.865 31.9729 47.3761 31.6321 47.7556C31.2914 48.1357 30.8344 48.3258 30.2618 48.3258C29.6912 48.3258 29.2356 48.1357 28.8928 47.7556C28.5507 47.3755 28.3794 46.8643 28.3794 46.2228C28.3794 45.5839 28.5501 45.0753 28.8909 44.6978C29.2323 44.3203 29.6893 44.1315 30.2618 44.1315ZM30.2618 44.5557C29.8639 44.5557 29.5422 44.7075 29.2966 45.0117C29.0511 45.316 28.9283 45.7168 28.9283 46.2144C28.9283 46.7093 29.0517 47.1102 29.2986 47.4151C29.5455 47.7206 29.8666 47.873 30.2618 47.873C30.6702 47.873 30.9966 47.7225 31.2408 47.4209C31.4844 47.1199 31.6072 46.7171 31.6072 46.2144C31.6072 45.7091 31.4851 45.3056 31.2408 45.0059C30.9966 44.7056 30.6702 44.5557 30.2618 44.5557Z" fill="#1F2937"/>
<path d="M35.1443 44.1866V44.7017C35.0858 44.6887 35.0333 44.679 34.9873 44.6725C34.9407 44.666 34.8994 44.6628 34.8619 44.6628C34.5198 44.6628 34.252 44.7899 34.0583 45.0442C33.8646 45.2985 33.7674 45.6513 33.7674 46.1015V48.2278H33.2539V44.2184H33.7273V45.0636C33.8285 44.7782 33.9795 44.5564 34.181 44.3994C34.3826 44.2418 34.6177 44.1633 34.8856 44.1633C34.9223 44.1633 34.9617 44.1652 35.0031 44.1691C35.0445 44.173 35.0911 44.1789 35.1443 44.1866Z" fill="#1F2937"/>
<path d="M38.6814 45.6682V48.2272H38.2276V47.5357C38.0766 47.7822 37.8862 47.9684 37.6571 48.0942C37.4273 48.2201 37.1666 48.283 36.8751 48.283C36.485 48.283 36.1725 48.1785 35.9381 47.9684C35.7037 47.7582 35.5855 47.4793 35.5855 47.1309C35.5855 46.7041 35.7661 46.3714 36.1265 46.1346C36.487 45.8978 36.9965 45.7791 37.6544 45.7791H38.1758C38.1758 45.7636 38.1771 45.7415 38.1797 45.7123C38.1823 45.6838 38.1837 45.6611 38.1837 45.6455C38.1837 45.3127 38.0996 45.052 37.9309 44.8632C37.7621 44.6744 37.5297 44.5804 37.2322 44.5804C37.0254 44.5804 36.8265 44.6076 36.6354 44.6628C36.4443 44.7179 36.2546 44.8029 36.0661 44.9183V44.4273C36.2677 44.3306 36.4712 44.2567 36.6768 44.2074C36.8823 44.1574 37.0858 44.1328 37.2874 44.1328C37.7516 44.1328 38.0996 44.2612 38.332 44.5181C38.5651 44.7737 38.6814 45.157 38.6814 45.6682ZM37.6072 46.191C37.1298 46.191 36.7628 46.2695 36.5067 46.4271C36.2506 46.5841 36.1226 46.8086 36.1226 47.0992C36.1226 47.3301 36.1975 47.5169 36.3478 47.659C36.4975 47.8017 36.6945 47.873 36.9387 47.873C37.3156 47.873 37.6157 47.755 37.8403 47.5195C38.0642 47.2834 38.1764 46.9642 38.1764 46.5601V46.191H37.6072Z" fill="#1F2937"/>
<path d="M44.9558 42.229H45.4692V48.2272H44.9958V47.4053C44.8448 47.694 44.6511 47.9119 44.4147 48.0598C44.179 48.2077 43.9052 48.2817 43.5953 48.2817C43.1232 48.2817 42.7358 48.0858 42.4331 47.694C42.1311 47.3022 41.9794 46.793 41.9794 46.167C41.9794 45.5514 42.1318 45.0578 42.4371 44.6874C42.7417 44.3164 43.1462 44.1309 43.6505 44.1309C43.9341 44.1309 44.1882 44.1957 44.4121 44.3255C44.636 44.4552 44.8172 44.642 44.9551 44.8853L44.9558 42.229ZM43.6984 44.5479C43.3432 44.5479 43.0602 44.6952 42.8514 44.9903C42.6413 45.2848 42.5369 45.6851 42.5369 46.191C42.5369 46.7074 42.6413 47.1128 42.8514 47.4079C43.0608 47.7024 43.3458 47.8497 43.7069 47.8497C44.0779 47.8497 44.3793 47.7005 44.6098 47.4014C44.8409 47.103 44.9558 46.7074 44.9558 46.2144C44.9558 45.6928 44.8442 45.2848 44.6216 44.9897C44.3983 44.6952 44.091 44.5479 43.6984 44.5479Z" fill="#1F2937"/>
<path d="M48.4653 44.1315C49.0411 44.1315 49.4981 44.3196 49.8376 44.6958C50.177 45.0721 50.3471 45.5813 50.3471 46.2228C50.3471 46.865 50.177 47.3761 49.8356 47.7556C49.4948 48.1357 49.0378 48.3258 48.4646 48.3258C47.894 48.3258 47.4384 48.1357 47.0956 47.7556C46.7535 47.3755 46.5822 46.8643 46.5822 46.2228C46.5822 45.5839 46.7522 45.0753 47.0937 44.6978C47.4351 44.3203 47.8921 44.1315 48.4653 44.1315ZM48.4653 44.5557C48.0674 44.5557 47.7457 44.7075 47.5001 45.0117C47.2552 45.316 47.1324 45.7168 47.1324 46.2144C47.1324 46.7093 47.2558 47.1102 47.5027 47.4151C47.7496 47.7206 48.07 47.873 48.4653 47.873C48.8737 47.873 49.2 47.7225 49.4443 47.4209C49.6885 47.1199 49.8106 46.7171 49.8106 46.2144C49.8106 45.7091 49.6885 45.3056 49.4443 45.0059C49.2 44.7056 48.8737 44.5557 48.4653 44.5557Z" fill="#1F2937"/>
<path d="M57.8513 42.8893L57.7476 43.3726C57.5355 43.2701 57.3136 43.1935 57.0811 43.1423C56.8493 43.091 56.6044 43.0657 56.3471 43.0657C55.6412 43.0657 55.0792 43.2779 54.6603 43.7027C54.2414 44.127 54.0319 44.6958 54.0319 45.4087C54.0319 46.1424 54.2499 46.7262 54.6865 47.1595C55.1232 47.5934 55.7108 47.8101 56.4515 47.8101C56.6504 47.8101 56.8362 47.7932 57.0082 47.7589C57.1809 47.7245 57.3425 47.6739 57.4935 47.6058V45.676H56.2006V45.2239H58.0233V47.9522C57.7738 48.0521 57.5145 48.126 57.2453 48.1759C56.9761 48.2259 56.695 48.2505 56.4035 48.2505C56.024 48.2505 55.6839 48.2071 55.3832 48.1208C55.0825 48.0345 54.8086 47.9009 54.5618 47.7199C54.2066 47.4605 53.9347 47.1342 53.7463 46.7411C53.5578 46.348 53.4639 45.9088 53.4639 45.4243C53.4639 45.1019 53.5086 44.7977 53.5972 44.5103C53.6859 44.2236 53.8238 43.9486 54.0096 43.6872C54.24 43.3544 54.5624 43.093 54.9761 42.9029C55.3897 42.7129 55.8448 42.6182 56.3411 42.6182C56.6143 42.6182 56.8763 42.6409 57.1271 42.685C57.3753 42.7291 57.6176 42.7972 57.8513 42.8893Z" fill="#1F2937"/>
<path d="M61.2249 44.1866V44.7017C61.1665 44.6887 61.1139 44.679 61.0673 44.6725C61.0207 44.666 60.9793 44.6628 60.9419 44.6628C60.5998 44.6628 60.3319 44.7899 60.1382 45.0442C59.9445 45.2985 59.8474 45.6513 59.8474 46.1015V48.2278H59.3339V44.2184H59.8073V45.0636C59.9084 44.7782 60.0594 44.5564 60.261 44.3994C60.4626 44.2424 60.6977 44.1633 60.9655 44.1633C61.0023 44.1633 61.0417 44.1652 61.0831 44.1691C61.1251 44.173 61.1717 44.1789 61.2249 44.1866Z" fill="#1F2937"/>
<path d="M61.9609 44.2178H62.4665V46.5134C62.4665 46.9642 62.5453 47.2957 62.7036 47.5078C62.8611 47.7199 63.1074 47.8263 63.4416 47.8263C63.829 47.8263 64.1251 47.6804 64.3306 47.3878C64.5361 47.0953 64.6392 46.6743 64.6392 46.1242V44.2178H65.1566V48.2272H64.6832V47.4371C64.5348 47.7199 64.3457 47.932 64.1159 48.0722C63.8867 48.2123 63.6143 48.2823 63.2984 48.2823C62.8605 48.2823 62.5282 48.1429 62.3017 47.8639C62.0752 47.585 61.9616 47.1738 61.9616 46.6315L61.9609 44.2178Z" fill="#1F2937"/>
<path d="M67.1093 47.5435V49.9098H66.5958V44.2178H67.0693V45.0079C67.2229 44.725 67.4205 44.5084 67.6622 44.3572C67.9038 44.2067 68.173 44.1315 68.4698 44.1315C68.9655 44.1315 69.3614 44.3151 69.6576 44.6816C69.953 45.0487 70.1014 45.5437 70.1014 46.1677C70.1014 46.8124 69.9484 47.3249 69.6438 47.705C69.3391 48.0851 68.9287 48.2752 68.4146 48.2752C68.1356 48.2752 67.8847 48.2123 67.6608 48.0864C67.437 47.9599 67.2531 47.779 67.1093 47.5435ZM69.5486 46.1988C69.5486 45.6851 69.4442 45.2842 69.236 44.9962C69.0279 44.7082 68.7403 44.5635 68.3746 44.5635C67.995 44.5635 67.6897 44.7114 67.4573 45.0079C67.2255 45.3043 67.1093 45.698 67.1093 46.191C67.1093 46.7177 67.2203 47.1283 67.4415 47.4228C67.6628 47.718 67.9714 47.8652 68.3667 47.8652C68.7219 47.8652 69.0082 47.7147 69.2242 47.4131C69.4409 47.1121 69.5486 46.7074 69.5486 46.1988Z" fill="#1F2937"/>
<path d="M72.7475 44.1315C73.3233 44.1315 73.781 44.3196 74.1204 44.6958C74.4599 45.0721 74.6293 45.5813 74.6293 46.2228C74.6293 46.865 74.4592 47.3761 74.1178 47.7556C73.777 48.1357 73.32 48.3258 72.7468 48.3258C72.1769 48.3258 71.7206 48.1357 71.3785 47.7556C71.0364 47.3755 70.865 46.8643 70.865 46.2228C70.865 45.5839 71.0357 45.0753 71.3765 44.6978C71.7179 44.3203 72.1749 44.1315 72.7475 44.1315ZM72.7475 44.5557C72.3496 44.5557 72.0279 44.7075 71.7823 45.0117C71.5374 45.316 71.4146 45.7168 71.4146 46.2144C71.4146 46.7093 71.538 47.1102 71.7849 47.4151C72.0318 47.7206 72.3522 47.873 72.7475 47.873C73.1559 47.873 73.4822 47.7225 73.7265 47.4209C73.9701 47.1199 74.0928 46.7171 74.0928 46.2144C74.0928 45.7091 73.9707 45.3056 73.7265 45.0059C73.4822 44.7056 73.1559 44.5557 72.7475 44.5557Z" fill="#1F2937"/>
<path d="M80.6772 42.7868L80.6017 43.3096C80.4428 43.2286 80.2793 43.1676 80.1125 43.1267C79.9457 43.0858 79.7717 43.0657 79.5912 43.0657C79.2038 43.0657 78.9011 43.1429 78.6818 43.2973C78.4631 43.4517 78.3535 43.6645 78.3535 43.9343C78.3535 44.2749 78.7225 44.6537 79.4599 45.0701C79.5603 45.1253 79.6378 45.1687 79.6903 45.1999C80.2018 45.4937 80.5354 45.7434 80.689 45.9504C80.8427 46.1573 80.9201 46.409 80.9201 46.7054C80.9201 47.1692 80.7533 47.5454 80.4205 47.8335C80.0876 48.1221 79.6516 48.2661 79.1132 48.2661C78.8932 48.2661 78.6739 48.2447 78.4566 48.2012C78.2393 48.1578 78.0278 48.0949 77.8236 48.0105L77.8873 47.4287C78.1184 47.5519 78.3351 47.6434 78.538 47.7018C78.7409 47.7608 78.9352 47.79 79.1211 47.79C79.4947 47.79 79.7947 47.6959 80.0199 47.5072C80.2451 47.3184 80.3581 47.0667 80.3581 46.7521C80.3581 46.3746 80.0002 45.9835 79.2839 45.5767C79.1723 45.5138 79.0876 45.4652 79.0291 45.4314C78.536 45.146 78.2104 44.8995 78.0521 44.6926C77.8945 44.4857 77.8151 44.2418 77.8151 43.9615C77.8151 43.5315 77.9714 43.1974 78.2826 42.9574C78.5938 42.7174 79.0337 42.598 79.6017 42.598C79.7744 42.598 79.9484 42.6136 80.125 42.6448C80.3029 42.6772 80.4861 42.7239 80.6772 42.7868Z" fill="#1F2937"/>
<path d="M85.949 42.8186V43.3259C85.7264 43.2422 85.5137 43.1805 85.3128 43.141C85.1112 43.1014 84.9136 43.082 84.7199 43.082C83.9851 43.082 83.4086 43.2947 82.991 43.7209C82.5728 44.1471 82.3646 44.7348 82.3646 45.484C82.3646 46.1943 82.5734 46.7521 82.991 47.1582C83.4086 47.5643 83.9851 47.7673 84.7199 47.7673C84.9372 47.7673 85.1447 47.7491 85.3423 47.7122C85.5399 47.6758 85.7317 47.6194 85.9175 47.5428V48.0657C85.7422 48.126 85.5485 48.1701 85.3364 48.1993C85.1243 48.2285 84.8853 48.2428 84.6201 48.2428C83.7579 48.2428 83.0718 47.9924 82.561 47.4923C82.0501 46.9915 81.7947 46.3195 81.7947 45.4755C81.7947 44.6057 82.06 43.9129 82.5905 43.3979C83.121 42.8835 83.8335 42.6259 84.7271 42.6259C84.9661 42.6259 85.188 42.6415 85.3935 42.6726C85.5997 42.7044 85.7849 42.7531 85.949 42.8186Z" fill="#1F2937"/>
<path d="M89.037 42.5436C89.7927 42.5436 90.3948 42.8037 90.8433 43.3239C91.2917 43.8441 91.5156 44.5466 91.5156 45.4327C91.5156 46.3188 91.2917 47.022 90.8433 47.5435C90.3948 48.065 89.7927 48.3258 89.037 48.3258C88.2786 48.3258 87.6752 48.0644 87.2267 47.5415C86.7783 47.0187 86.5544 46.3156 86.5544 45.4327C86.5544 44.5499 86.7783 43.8474 87.2267 43.3259C87.6752 42.8043 88.2786 42.5436 89.037 42.5436ZM89.037 43.0035C88.4559 43.0035 87.9917 43.2227 87.6443 43.6619C87.297 44.101 87.123 44.6887 87.123 45.4249C87.123 46.1612 87.297 46.7495 87.6443 47.19C87.9917 47.6304 88.4559 47.8503 89.037 47.8503C89.6174 47.8503 90.0829 47.6304 90.4316 47.19C90.7802 46.7495 90.9549 46.1612 90.9549 45.4249C90.9549 44.6887 90.7802 44.101 90.4316 43.6619C90.0829 43.2227 89.6174 43.0035 89.037 43.0035Z" fill="#1F2937"/>
<path d="M93.9746 42.6415C94.5819 42.6415 95.0422 42.7615 95.3547 43.0015C95.6679 43.2415 95.8242 43.5957 95.8242 44.0647C95.8242 44.413 95.7126 44.7062 95.49 44.943C95.2674 45.1804 94.9516 45.3406 94.5432 45.4243C94.7099 45.4606 94.8498 45.5326 94.9608 45.6384C95.0724 45.7441 95.184 45.9205 95.295 46.167L96.2221 48.2265H95.6371L94.7973 46.2851C94.6935 46.0548 94.5675 45.8913 94.4191 45.796C94.2707 45.7006 94.0619 45.652 93.794 45.652H93.2411V48.2265H92.7159V42.6415H93.9746ZM93.2425 43.1053V45.1849H93.8912C94.318 45.1849 94.6515 45.0863 94.8918 44.8898C95.1321 44.6932 95.2516 44.4208 95.2516 44.0725C95.2516 43.7475 95.1413 43.5049 94.9214 43.3453C94.7014 43.1851 94.3672 43.1053 93.9188 43.1053H93.2425Z" fill="#1F2937"/>
<path d="M10.6014 19.5969C8.54165 19.5969 6.9343 20.3591 5.78855 21.8783C5.00654 22.9317 4.6139 23.9145 4.6139 24.8168H13.3446C14.2567 24.8168 14.7189 24.3958 14.7189 23.5415C14.7189 22.6904 14.2869 21.8141 13.4247 20.9098C12.558 20.0335 11.6276 19.5969 10.6014 19.5969ZM4.61455 28.4188C4.61455 29.5942 5.08336 30.7378 6.02098 31.836C7.2022 33.243 8.72812 33.9487 10.602 33.9487C12.801 33.9487 15.2061 33.4843 17.8541 32.5521V36.4169C15.1857 37.17 12.7747 37.5482 10.602 37.5482C7.21533 37.5482 4.58632 36.4993 2.73735 34.4132C0.982267 32.4561 0.111621 29.9172 0.111621 26.7958C0.111621 23.7711 0.941558 21.2854 2.6231 19.3238C4.46288 17.1086 7.11421 15.9955 10.5672 15.9955C12.9133 15.9955 14.9126 16.7707 16.5567 18.3203C18.2251 19.8694 19.0636 21.7304 19.0636 23.9274C19.0636 25.3156 18.5423 26.4183 17.497 27.2136C16.4517 28.0127 15.1995 28.4188 13.7353 28.4188H4.61455Z" fill="#155E75"/>
<path d="M31.6138 37.5877C29.3689 37.5877 27.2192 37.2394 25.1877 36.5388V32.5151C27.3859 33.5472 29.4647 34.0707 31.4483 34.0707C32.5547 34.0707 33.4726 33.8306 34.2014 33.3467C34.9322 32.8758 35.2894 32.2901 35.2894 31.5889C35.2894 30.6347 34.4141 29.7317 32.6702 28.8826C29.6643 27.4413 28.0616 26.6363 27.8488 26.4812C26.1003 25.3149 25.2297 23.8665 25.2297 22.1131C25.2297 20.0198 26.055 18.4481 27.6959 17.3876C29.08 16.4924 30.7858 16.0364 32.8232 16.0364C34.5527 16.0364 36.4706 16.3769 38.5829 17.0444V20.8703C36.5303 20.0451 34.7063 19.6358 33.1246 19.6358C30.7589 19.6358 29.5757 20.3838 29.5757 21.8809C29.5757 22.6768 30.447 23.4805 32.1948 24.279C34.8698 25.4862 36.51 26.3009 37.1068 26.7167C38.8488 27.9492 39.7168 29.5112 39.7168 31.3968C39.7168 33.5666 38.768 35.2039 36.8514 36.3157C35.3695 37.1603 33.6203 37.5877 31.6138 37.5877Z" fill="#155E75"/>
<path d="M51.2427 37.5877C48.9965 37.5877 46.8612 37.2394 44.8225 36.5388V32.5151C47.0142 33.5472 49.1028 34.0707 51.091 34.0707C52.1803 34.0707 53.0956 33.8306 53.8224 33.3467C54.5565 32.8758 54.9288 32.2901 54.9288 31.5889C54.9288 30.6347 54.047 29.7317 52.2991 28.8826C49.2972 27.4413 47.6905 26.6363 47.4856 26.4812C45.7306 25.3149 44.8612 23.8665 44.8612 22.1131C44.8612 20.0198 45.6787 18.4481 47.3248 17.3876C48.7082 16.4924 50.4285 16.0364 52.4607 16.0364C54.1803 16.0364 56.1002 16.3769 58.217 17.0444V20.8703C56.156 20.0451 54.3438 19.6358 52.7581 19.6358C50.3976 19.6358 49.2072 20.3838 49.2072 21.8809C49.2072 22.6768 50.0746 23.4805 51.8231 24.279C54.504 25.4862 56.1363 26.3009 56.7357 26.7167C58.4843 27.9492 59.3536 29.5112 59.3536 31.3968C59.3536 33.5666 58.3956 35.2039 56.4915 36.3157C55.005 37.1603 53.2512 37.5877 51.2427 37.5877Z" fill="#155E75"/>
<path d="M75.0482 19.5554C71.0187 19.5554 69.0167 21.8939 69.0167 26.5591C69.0167 28.7139 69.5131 30.4641 70.5033 31.7893C71.5702 33.2345 73.1034 33.9481 75.0869 33.9481C79.0259 33.9481 80.9943 31.6278 80.9943 26.9807C80.9943 24.7506 80.5104 22.9914 79.5505 21.7142C78.4783 20.2767 76.9766 19.5554 75.0482 19.5554ZM75.0869 37.5482C71.6608 37.5482 69.0167 36.4681 67.1303 34.297C65.3326 32.2622 64.4265 29.6837 64.4265 26.5597C64.4265 23.4435 65.3175 20.9241 67.0909 19.0157C69.0023 16.9815 71.6464 15.9559 75.0482 15.9559C78.4126 15.9559 81.0521 17.0574 82.953 19.2479C84.7015 21.2342 85.578 23.8113 85.578 26.9814C85.578 30.1319 84.7015 32.6397 82.953 34.5325C81.1046 36.5421 78.4783 37.5482 75.0869 37.5482Z" fill="#155E75"/>
<path d="M100.73 19.6352C99.2155 19.6352 97.7139 19.8369 96.226 20.2566V36.6575H91.8787V17.8319C94.8616 16.628 97.8853 16.0351 100.965 16.0351C101.585 16.0351 102.339 16.0734 103.196 16.1531V19.7409C101.627 19.6761 100.812 19.6352 100.73 19.6352Z" fill="#155E75"/>
<path d="M117.951 10.5045L125.814 4.69247L120.875 1.00284C120.07 0.37493 119.056 0 117.952 0C116.879 0 115.891 0.353524 115.097 0.949002L110.087 4.69182L117.951 10.5045Z" fill="#155E75"/>
<path d="M117.951 23.8911L125.793 29.6785L120.875 33.3934C120.07 34.0201 119.056 34.3963 117.952 34.3963C116.879 34.3963 115.891 34.0415 115.097 33.446L110.087 29.7032L117.951 23.8911Z" fill="#155E75"/>
<path d="M126 17.9409L118.582 23.4228L126 28.9066V17.9409Z" fill="#0891B2"/>
<path d="M109.57 5.238L109.572 12.9312L109.588 13.382C109.588 13.4132 109.572 12.9961 109.572 13.0272C109.572 15.3922 110.685 17.5802 112.431 18.8788L117.573 22.6742V11.1519L109.57 5.238Z" fill="#0891B2"/>
<path d="M118.332 22.6774L125.75 17.1968L118.332 11.7137V22.6774Z" fill="#155E75"/>
</svg>
